<?xml version="1.0" encoding="UTF-8" standalone="no"?>
<!DOCTYPE svg PUBLIC "-//W3C//DTD SVG 1.1//EN" "http://www.w3.org/Graphics/SVG/1.1/DTD/svg11.dtd">
<svg width="100%" height="100%" viewBox="0 0 3000 4000" version="1.1" xmlns="http://www.w3.org/2000/svg" xmlns:xlink="http://www.w3.org/1999/xlink" xml:space="preserve" xmlns:serif="http://www.serif.com/" style="fill-rule:evenodd;clip-rule:evenodd;stroke-linejoin:round;stroke-miterlimit:2;">
    <g transform="matrix(1.7577,0,0,1.7577,-1998.4,-781.876)">
        <path d="M1348.12,1727.49L1990.33,2680.49L2614.33,1751.77C2718.91,1617.69 2781.24,1449.06 2781.24,1265.98C2781.24,829.462 2426.85,475.064 1990.33,475.064C1553.81,475.064 1199.41,829.462 1199.41,1265.98C1199.41,1438.14 1254.54,1597.53 1348.12,1727.49ZM1990.33,863.953C2212.21,863.953 2392.36,1044.1 2392.36,1265.98C2392.36,1487.87 2212.21,1668.01 1990.33,1668.01C1768.44,1668.01 1588.3,1487.87 1588.3,1265.98C1588.3,1044.1 1768.44,863.953 1990.33,863.953Z" style="fill:rgb(14,168,255);"/>
    </g>
    <g transform="matrix(1.63917,0,0,1.63917,-2279.11,-999.26)">
        <circle cx="2305.5" cy="1491.49" r="562.575" style="fill:white;"/>
    </g>
    <g transform="matrix(1.92446,0,0,1.92446,-2351.74,-1497.27)">
        <path d="M2001.36,880.913L1877.07,1322.33L1440.62,1204.42L1753.7,1525.94L1439.83,1848.96L1877.38,1733.07L2001.36,2174.54L2112.09,1728.94L2563.68,1850.59L2231.72,1525.17L2557.26,1194.34L2114.53,1317.55L2001.36,880.913Z" style="fill:rgb(255,14,16);"/>
    </g>
</svg>
