<?xml version="1.0" encoding="UTF-8" standalone="no"?>
<!DOCTYPE svg PUBLIC "-//W3C//DTD SVG 1.1//EN" "http://www.w3.org/Graphics/SVG/1.1/DTD/svg11.dtd">
<svg width="100%" height="100%" viewBox="0 0 4000 4000" version="1.1" xmlns="http://www.w3.org/2000/svg" xmlns:xlink="http://www.w3.org/1999/xlink" xml:space="preserve" xmlns:serif="http://www.serif.com/" style="fill-rule:evenodd;clip-rule:evenodd;stroke-linejoin:round;stroke-miterlimit:2;">
    <g transform="matrix(1.61001,0,0,1.61001,-1204.44,-508.453)">
        <path d="M1348.12,1727.49L1990.33,2680.49L2614.33,1751.77C2718.91,1617.69 2781.24,1449.06 2781.24,1265.98C2781.24,829.462 2426.85,475.064 1990.33,475.064C1553.81,475.064 1199.41,829.462 1199.41,1265.98C1199.41,1438.14 1254.54,1597.53 1348.12,1727.49ZM1990.33,863.953C2212.21,863.953 2392.36,1044.1 2392.36,1265.98C2392.36,1487.87 2212.21,1668.01 1990.33,1668.01C1768.44,1668.01 1588.3,1487.87 1588.3,1265.98C1588.3,1044.1 1768.44,863.953 1990.33,863.953Z" style="fill:rgb(14,168,255);"/>
    </g>
    <g transform="matrix(4.08907,0,0,4.08907,-5253.83,-4914.78)">
        <path d="M1773.96,1429.87L1805.94,1528.32L1909.46,1528.32L1825.71,1589.16L1857.7,1687.61L1773.96,1626.77L1690.21,1687.61L1722.2,1589.16L1638.45,1528.32L1741.97,1528.32L1773.96,1429.87Z" style="fill:rgb(255,14,16);"/>
    </g>
</svg>
